<svg id="sec_2_calidad" data-name="sec 2_calidad" xmlns="http://www.w3.org/2000/svg" xmlns:xlink="http://www.w3.org/1999/xlink" viewBox="0 0 50.75 84.4"><defs><style>.cls-1{fill:none;}.cls-2{clip-path:url(#clip-path);}.cls-3{fill:#1a1818;}</style><clipPath id="clip-path" transform="translate(0.01)"><rect class="cls-1" width="50.73" height="84.4"/></clipPath></defs><g id="sec_2_calidad-2" data-name="sec 2 calidad"><g class="cls-2"><g id="Group_37" data-name="Group 37"><path id="Path_150" data-name="Path 150" class="cls-3" d="M3,45a33.88,33.88,0,0,0,5,13.44c2.67,4.07,5.51,8,8.24,12.05a3.64,3.64,0,0,1,.58,1.86c.06,4,0,8,0,12h-2.8c0-.31,0-.62,0-.93,0-3.47,0-6.93,0-10.39a3,3,0,0,0-.49-1.53c-2.38-3.51-4.84-7-7.23-10.5A38.41,38.41,0,0,1,.07,44.62,6.52,6.52,0,0,1,0,43.74a1.34,1.34,0,0,1,1.14-1.51.88.88,0,0,1,.28,0c1.85,0,3.7,0,5.55,0a1.36,1.36,0,0,1,1.4,1c.25.69.48,1.38.67,2.09a29.4,29.4,0,0,0,3.85,8.43c1.23,1.86,2.54,3.67,3.81,5.5A2.88,2.88,0,0,0,19,60.49a8.49,8.49,0,0,1-2-6.69A8.17,8.17,0,0,1,20.49,48,8.48,8.48,0,0,1,31.81,60.39a2.44,2.44,0,0,0,2.26-1.25c3.49-4.68,6.65-9.5,8.06-15.28.38-1.56.67-1.65,2.23-1.66h4.49c1.51,0,2,.57,1.84,2a34,34,0,0,1-3.78,12.36c-1.86,3.35-4.07,6.5-6.17,9.71-1.19,1.81-2.48,3.56-3.68,5.36a2.48,2.48,0,0,0-.4,1.29c0,3.78,0,7.57,0,11.42H33.88c0-.28,0-.56,0-.85,0-3.78,0-7.57,0-11.35a3,3,0,0,1,.51-1.61c2.51-3.71,5.1-7.38,7.63-11.08A35.71,35.71,0,0,0,47.53,46c.06-.3.07-.62.11-1-.86,0-1.68,0-2.5,0a.8.8,0,0,0-.57.47c-1.39,5.76-4.7,10.48-8.1,15.17a5.94,5.94,0,0,1-5.15,2.66c-4.11,0-8.22,0-12.32,0a5,5,0,0,1-4.11-1.86C11.77,57.36,8.7,53.2,7,48.24c-.29-.86-.55-1.73-.79-2.6-.11-.43-.27-.65-.76-.63-.79,0-1.58,0-2.43,0m22.35,4.23A5.64,5.64,0,1,0,31,54.93v0a5.65,5.65,0,0,0-5.59-5.63" transform="translate(0.01)"/><path id="Path_151" data-name="Path 151" class="cls-3" d="M25.59,13.88a8.73,8.73,0,0,1,4.75-2.52,7.54,7.54,0,0,1,9,5.69,7.65,7.65,0,0,1,0,3.3c-.68,3.77-2.84,6.7-5.36,9.41a46,46,0,0,1-7.57,6.41,1.57,1.57,0,0,1-2,.11,41,41,0,0,1-10.25-9.55,13.12,13.12,0,0,1-2.93-7.57c-.09-5.8,4.84-9.39,10.32-7.46a28.21,28.21,0,0,1,4,2.18m-.22,19.56a39.42,39.42,0,0,0,8.49-7.87,12.75,12.75,0,0,0,2.73-5.9,4.61,4.61,0,0,0-3.52-5.5,4.24,4.24,0,0,0-.94-.11,5.57,5.57,0,0,0-5.31,3c-.33.59-.68,1.08-1.45,1.08s-1.12-.5-1.44-1.1a5.5,5.5,0,0,0-3.42-2.71c-3.85-1.14-7,1.63-6.27,5.56a12.64,12.64,0,0,0,1.38,3.75c2.37,4.1,6,7,9.76,9.83" transform="translate(0.01)"/><path id="Path_152" data-name="Path 152" class="cls-3" d="M11.43,10.39,7.56,6.53l1.8-1.75L13.17,8.6l-1.74,1.79" transform="translate(0.01)"/><path id="Path_153" data-name="Path 153" class="cls-3" d="M39.24,10.4l-1.8-1.8,3.94-3.91,1.71,1.85L39.24,10.4" transform="translate(0.01)"/><rect id="Rectangle_57" data-name="Rectangle 57" class="cls-3" x="24.03" width="2.7" height="5.52"/><rect id="Rectangle_58" data-name="Rectangle 58" class="cls-3" x="1.5" y="19.71" width="5.52" height="2.72"/><rect id="Rectangle_59" data-name="Rectangle 59" class="cls-3" x="43.77" y="19.71" width="5.51" height="2.7"/></g></g></g></svg>