<svg id="sec_2_productos" data-name="sec 2_productos" xmlns="http://www.w3.org/2000/svg" xmlns:xlink="http://www.w3.org/1999/xlink" viewBox="0 0 70 76.22"><defs><style>.cls-1{fill:none;}.cls-2{clip-path:url(#clip-path);}.cls-3{fill:#1a1818;}</style><clipPath id="clip-path" transform="translate(0 0)"><rect class="cls-1" width="70" height="76.22"/></clipPath></defs><g class="cls-2"><g id="Group_38" data-name="Group 38"><path id="Path_154" data-name="Path 154" class="cls-3" d="M8.48,76.22a11,11,0,0,1-7.33-6.54C-1,64.37-.07,59.48,3.45,55.06A2.84,2.84,0,0,0,4.2,53c-.07-1,0-2.08,0-3.12a3.86,3.86,0,0,1,3.54-4.15,2.81,2.81,0,0,1,.58,0H23.24v-.8c0-3.9,0-7.8,0-11.69a16.34,16.34,0,0,1,8.38-14.55.91.91,0,0,0,.53-.94c0-.84,0-1.68,0-2.53a4.88,4.88,0,0,1,3.21-4.65.75.75,0,0,0,.57-.87c0-.66,0-1.32,0-2.06H35c-3.1,0-6.2,0-9.3,0a3.54,3.54,0,0,1-3.3-2.16,3.62,3.62,0,0,1,.36-3.87,3.58,3.58,0,0,1,3-1.58h16.6A3.75,3.75,0,0,1,46,2.85,3.71,3.71,0,0,1,44.19,7.1a.9.9,0,0,0-.58,1,.81.81,0,0,1,0,.22A2.16,2.16,0,0,0,45,11a4.16,4.16,0,0,1,2.34,3.73c.07,1,.07,1.94,0,2.9a1,1,0,0,0,.6,1.05,14.89,14.89,0,0,1,5.3,4.89,1.05,1.05,0,0,0,1,.54c3.85,0,7.69,0,11.54,0A3.8,3.8,0,0,1,70,28.51c-.42,4.86-.88,9.73-1.32,14.59-.37,4.1-.72,8.2-1.09,12.29-.35,3.93-.74,7.85-1,11.78a32.63,32.63,0,0,0,0,4.31c.12,2.35-.77,4-3.06,4.74Zm42-52.07c-.24-.3-.35-.46-.48-.6a13.92,13.92,0,0,0-24.1,8.28c-.19,4.41-.09,8.83-.11,13.24,0,.2,0,.39.05.64h5a3.8,3.8,0,0,1,3.82,3.77v.06c0,1.32,0,2.63,0,4a2.38,2.38,0,0,0,.41,1.12c.69,1.08,1.53,2.08,2.14,3.2,2.84,5.32,1.74,11.9-2,15.58a.7.7,0,0,0-.13.24h13.7c-.05-.39-.11-.74-.13-1.08-.15-3.21-.24-6.43-.45-9.65-.2-3-.52-5.92-.79-8.88-.32-3.58-.65-7.15-1-10.73-.27-3-.56-6-.82-9-.19-2.1-.42-4.2-.52-6.3a3.69,3.69,0,0,1,3.26-3.81,18.74,18.74,0,0,1,2.12,0M6.76,53.33c.85,0,1.62,0,2.38,0a1.31,1.31,0,0,1,1.41,1.21v.1a1.29,1.29,0,0,1-1.32,1.27H9.18a10.37,10.37,0,0,1-1.93,0,2,2,0,0,0-2,1A11.51,11.51,0,0,0,3.56,68.8a7.5,7.5,0,0,0,7.34,4.89c6,0,11.91,0,17.86,0a5.6,5.6,0,0,0,3-.85,8.36,8.36,0,0,0,3.51-4c1.8-4.37,1.08-8.37-1.75-12.08a1.9,1.9,0,0,0-1.73-.85c-5.29,0-10.57,0-15.86,0-1,0-1.65-.54-1.62-1.33S15,53.34,16,53.33H32.15V50.19c0-1.56-.36-1.91-1.94-1.91H8.7a6,6,0,0,0-.74,0,1.18,1.18,0,0,0-1.19,1.18v0c0,1.23,0,2.47,0,3.83M48.11,33.07c1,11,2,22,3,32.93H64c1-11,2-21.94,3-32.93Zm9.4-2.58h7.88c1.83,0,1.83,0,2-1.8.17-1.52-.26-2-1.78-2H49.51a3.88,3.88,0,0,0-.59,0A1.3,1.3,0,0,0,47.64,28a1.27,1.27,0,0,0,0,.2c0,.52.13,1,.14,1.55s.21.76.8.75c3,0,5.94,0,8.92,0m-6.3,38.16c0,1.28,0,2.47,0,3.65a1.25,1.25,0,0,0,1.13,1.36h.14q5.07,0,10.12,0a1.12,1.12,0,0,0,1.23-1c.08-1.35,0-2.7,0-4ZM34.1,5.07h8c.93,0,1.51-.5,1.5-1.27S43,2.54,42,2.54q-8,0-15.91,0c-1,0-1.58.48-1.57,1.28s.56,1.25,1.59,1.25h8M44.83,17.24c0-.71,0-1.35,0-2a2.37,2.37,0,0,0-2.26-2.48c-1.85-.08-3.71-.07-5.56,0a2.23,2.23,0,0,0-2.21,2,17.81,17.81,0,0,0,0,2.53,17.75,17.75,0,0,1,10.06,0M41,7.67H38.6v2.44H41Z" transform="translate(0 0)"/><path id="Path_155" data-name="Path 155" class="cls-3" d="M28.33,32.23a11.34,11.34,0,0,1,6.5-9.53,1.1,1.1,0,0,1,1.44.1A1.67,1.67,0,0,1,36.72,24a1.75,1.75,0,0,1-.85,1A8.94,8.94,0,0,0,31,31.5a10.74,10.74,0,0,0-.12,1.26c-.08,1-.6,1.6-1.42,1.53s-1.21-.67-1.16-2.06" transform="translate(0 0)"/><path id="Path_156" data-name="Path 156" class="cls-3" d="M19.38,63.55H10.82c-.61,0-1.2-.15-1.39-.76a1.41,1.41,0,0,1,.11-1.22A2.26,2.26,0,0,1,11,61c2-.06,4,0,6,0H28.07c1,0,1.57.53,1.55,1.32S29,63.54,28,63.54H19.38" transform="translate(0 0)"/><path id="Path_157" data-name="Path 157" class="cls-3" d="M19.42,68.62h-5a1.26,1.26,0,0,1-1.27-.86,1.13,1.13,0,0,1,.38-1.4,1.85,1.85,0,0,1,1-.3q4.9,0,9.81,0c.94,0,1.47.5,1.45,1.31s-.56,1.23-1.45,1.24c-1.64,0-3.28,0-4.91,0" transform="translate(0 0)"/></g></g></svg>