<svg id="logo_biscanna_sec1" data-name="logo biscanna sec1" xmlns="http://www.w3.org/2000/svg" xmlns:xlink="http://www.w3.org/1999/xlink" viewBox="0 0 501.96 103.53"><defs><style>.cls-1{fill:none;}.cls-2{clip-path:url(#clip-path);}.cls-3{fill:#edeeef;}</style><clipPath id="clip-path"><rect class="cls-1" width="501.96" height="103.53"/></clipPath></defs><g class="cls-2"><g id="Group_36" data-name="Group 36"><path id="Path_139" data-name="Path 139" class="cls-3" d="M502,32.55a9.88,9.88,0,0,0-7.71,8.39l0,0q-3.69,4.19-6.83,8.3l-.13-5.7c1.1-1.91,3.09-6.89-1.52-12.51,0,0-2.94,5.13-2,9.24.7,2.91,1.89,3.75,2.52,4l.13,6.22q-2,2.66-3.73,5.27L471.25,21.39h-3.06l-17,53.85a12.82,12.82,0,0,1-2.25,4.85,5.12,5.12,0,0,1-3.79,1.19H443v.85h17.7v-.85h-3.24a10.42,10.42,0,0,1-4.59-.68,2.42,2.42,0,0,1-1.19-2.3,11.63,11.63,0,0,1,.51-3c.34-1.24.65-2.32.93-3.23l2.14-6.87.08.06s3.44-4,11.31-2.77a19.08,19.08,0,0,0,12.07-2.19l4,12.54c.23.85.52,1.84.89,3a9.47,9.47,0,0,1,.55,2.73,2.24,2.24,0,0,1-1,2.08,8.3,8.3,0,0,1-4,.64h-2.38v.85h19.14v-.85h-1.1a5,5,0,0,1-3.15-.77,7.35,7.35,0,0,1-1.78-3.23l-6.78-20.34a137.91,137.91,0,0,1,11.68-15.13c1.76-.06,6.38-1,7.17-9.27M466.8,61.6c-5.88-.91-9.41.88-11.05,2.1l8-25.72c.73-2.38,1.43-4.6,2.09-6.64s1.26-4,1.82-5.95q.76,2.71,1.92,6.42c.76,2.47,1.66,5.26,2.68,8.38l6.16,19.23A18.24,18.24,0,0,1,466.8,61.6"/><path id="Path_140" data-name="Path 140" class="cls-3" d="M214.69,82.67A19.79,19.79,0,0,1,205.94,81a12.39,12.39,0,0,1-5.12-4.31,10.06,10.06,0,0,1-1.69-5.49,5.45,5.45,0,0,1,1.06-3.51,3.72,3.72,0,0,1,3.09-1.31c0,5,.95,8.85,2.87,11.49s4.93,4,9,4c3.6,0,6.41-1.1,8.41-3.3s3-5.46,3-9.8a13.84,13.84,0,0,0-1.35-6.51A13.39,13.39,0,0,0,221,57.65a78.76,78.76,0,0,0-7.35-4.48,52.54,52.54,0,0,1-6.76-4.4,16.81,16.81,0,0,1-4.65-5.41,16.31,16.31,0,0,1-1.69-7.86q0-6.84,4.14-10.86t11.16-4a18.23,18.23,0,0,1,7.4,1.35,11.88,11.88,0,0,1,4.77,3.55,7.62,7.62,0,0,1,1.69,4.73q0,4.23-4.39,4.23,0-6.6-2.37-9.8t-7.35-3.21a9.66,9.66,0,0,0-7.7,3.21q-2.79,3.21-2.79,9.21a13.52,13.52,0,0,0,1.36,6.47,13.28,13.28,0,0,0,4,4.4,58.18,58.18,0,0,0,6.59,4q3.81,2.11,7.06,4.35a17.89,17.89,0,0,1,5.2,5.41,15.5,15.5,0,0,1,2,8.16q0,7.18-4.27,11.58t-12.3,4.39"/><path id="Path_141" data-name="Path 141" class="cls-3" d="M118.45,82.13v-.85h2c2.15,0,3.6-.45,4.34-1.36s1.1-2.75,1.1-5.53V28.88q0-4-1.14-5.32c-.77-.88-2.2-1.32-4.3-1.32h-2v-.85h20.07q9.53,0,14.25,3.53t4.72,11q0,6.56-3.49,9.82a17.06,17.06,0,0,1-9.61,4.13v.17q7.83.6,11.61,4.47t3.79,11.1q0,8.41-4.68,12.46t-14.29,4Zm13-32.33h6.8q7.67,0,10.55-3.4t2.9-10.2q0-7.41-3.07-10.68t-10.38-3.28h-6.8Zm0,31.48h8.94q7.48,0,10.54-3.7T154,65.72q0-7.76-2.89-11.4t-10.47-3.66h-9.19Z"/><path id="Path_142" data-name="Path 142" class="cls-3" d="M168.55,82.13v-.85h2.3c2.1,0,3.5-.45,4.21-1.36s1.07-2.69,1.07-5.36V28.88q0-4-1.07-5.32c-.71-.88-2.11-1.32-4.21-1.32h-2.3v-.85h20.68v.85H187.1c-2.1,0-3.52.46-4.26,1.36s-1.1,2.73-1.1,5.45V74.56q0,4,1.1,5.36c.74.91,2.16,1.36,4.26,1.36h2.13v.85Z"/><path id="Path_143" data-name="Path 143" class="cls-3" d="M263.24,83q-7.67,0-12.72-3.87a23.19,23.19,0,0,1-7.61-10.89,47.92,47.92,0,0,1-2.56-16.46A47,47,0,0,1,243,35.22a23.2,23.2,0,0,1,7.83-10.85,21.2,21.2,0,0,1,12.93-3.83q7.74,0,11.65,2.94c2.61,1.95,3.92,4.21,3.92,6.76A4.56,4.56,0,0,1,278,33.81a4.83,4.83,0,0,1-3.36,1.2q-.09-7-2.55-10.3t-8.77-3.32a13.61,13.61,0,0,0-12.93,7.91q-4.09,7.92-4.09,22.29,0,14.73,4.17,22.63t13.44,7.91c3.69,0,6.59-.95,8.72-2.85a15.38,15.38,0,0,0,4.47-8.12A2.41,2.41,0,0,1,279,73.63a6.71,6.71,0,0,1-1.78,4.08,13.79,13.79,0,0,1-5.28,3.74A21.66,21.66,0,0,1,263.23,83"/><path id="Path_144" data-name="Path 144" class="cls-3" d="M338.52,82.13v-.85h2.72c2.1,0,3.53-.45,4.3-1.36s1.16-2.72,1.15-5.44V28.88q0-4-1.15-5.32c-.76-.88-2.19-1.32-4.3-1.32h-2.72v-.85h12.42l31.23,53.17V29.05q0-4.08-1.11-5.45c-.74-.91-2.16-1.36-4.25-1.36h-3v-.85h17.44v.85h-2.81c-2.16,0-3.6.46-4.34,1.36s-1.1,2.73-1.1,5.45V82.13h-2.38l-33.1-56.06V74.48q0,4.08,1.15,5.44c.76.91,2.2,1.36,4.3,1.36h3v.85Z"/><path id="Path_145" data-name="Path 145" class="cls-3" d="M390.35,82.13v-.85h2.73c2.09,0,3.53-.45,4.3-1.36s1.15-2.72,1.14-5.44V28.88q0-4-1.14-5.32c-.77-.88-2.2-1.32-4.3-1.32h-2.73v-.85h12.42L434,74.56V29.05c0-2.72-.36-4.54-1.1-5.45s-2.16-1.36-4.25-1.36h-3v-.85H443.1v.85h-2.81c-2.16,0-3.6.46-4.34,1.36s-1.1,2.73-1.11,5.45V82.13h-2.37l-33.1-56.06V74.48q0,4.08,1.15,5.44c.77.91,2.2,1.36,4.3,1.36h3v.85Z"/><path id="Path_146" data-name="Path 146" class="cls-3" d="M333.67,81.28a5,5,0,0,1-3.14-.76,7.35,7.35,0,0,1-1.79-3.24L310.11,21.39h-3.06L290,75.24a12.82,12.82,0,0,1-2.25,4.85A5.12,5.12,0,0,1,284,81.28h-2.13v.85h17.7v-.85h-3.23a10.28,10.28,0,0,1-4.59-.68,2.41,2.41,0,0,1-1.19-2.3,11.63,11.63,0,0,1,.51-3c.34-1.24.65-2.32.93-3.23l2.14-6.87.07.06s3.45-4,11.31-2.77a19.11,19.11,0,0,0,12.07-2.18l4,12.53q.35,1.27.9,3a9.47,9.47,0,0,1,.55,2.73,2.24,2.24,0,0,1-1,2.08,8.32,8.32,0,0,1-4,.64h-2.38v.85h19.14v-.85Zm-28-19.67c-5.88-.92-9.4.87-11,2.09l8-25.72c.74-2.38,1.43-4.59,2.09-6.64s1.26-4,1.83-5.95c.51,1.82,1.14,4,1.91,6.42s1.66,5.26,2.68,8.38l6.16,19.23a18.3,18.3,0,0,1-11.64,2.19"/><path id="Path_147" data-name="Path 147" class="cls-3" d="M34.31,97.56a3,3,0,1,0,3,3h0a3,3,0,0,0-3-3"/><path id="Path_148" data-name="Path 148" class="cls-3" d="M34.57.19s0,0-.07,0A1.21,1.21,0,0,0,33.94,0h0a1.17,1.17,0,0,0-.57.16h-.07C32.94.37,0,20.26,0,52.06,0,74.52,13.14,89.61,32.7,89.61c.3,0,.59,0,.89,0h0a1.53,1.53,0,0,0,.3,0h0a1.39,1.39,0,0,0,.3,0l0,0h.06l0,0c18.79-.86,32.27-16.32,32.27-37.46C66.62,20.28,34.89.38,34.57.19M14.92,19.92,31,82.24,3.47,44.07a1,1,0,0,0-.19-.17c1.79-9.42,6.44-17.5,11.64-24m48.7,25.54L36.77,82.32,52.72,20.65c5.05,6.71,9.47,15.08,10.89,24.81M50.77,18.17,35.16,78.53V3.61A83.56,83.56,0,0,1,50.77,18.17M32.66,3.56v75L17,17.88a1.26,1.26,0,0,0-.13-.26A85.6,85.6,0,0,1,32.66,3.56M2.5,52.06a43.4,43.4,0,0,1,.26-4.7L31.44,87.07c-20-.7-28.94-17.92-28.94-35m34,34.81L64,49.16c.06,1,.1,1.92.1,2.9,0,19.17-11.16,33-27.58,34.81"/></g></g></svg>