<svg id="logo_biscanna_top_banner" data-name="logo biscanna top banner" xmlns="http://www.w3.org/2000/svg" xmlns:xlink="http://www.w3.org/1999/xlink" viewBox="0 0 225.59 46.53"><defs><style>.cls-1{fill:none;}.cls-2{clip-path:url(#clip-path);}.cls-3{fill:#707070;}</style><clipPath id="clip-path" transform="translate(0 0)"><rect class="cls-1" width="225.59" height="46.53"/></clipPath></defs><g class="cls-2"><g id="Group_36" data-name="Group 36"><path id="Path_139" data-name="Path 139" class="cls-3" d="M225.59,14.63a4.45,4.45,0,0,0-3.47,3.77h0c-1.1,1.25-2.13,2.5-3.07,3.73l0-2.56a4.76,4.76,0,0,0-.69-5.63s-1.32,2.31-.88,4.16c.31,1.31.85,1.69,1.13,1.8l.06,2.8q-.9,1.2-1.68,2.37L211.79,9.62h-1.38l-7.65,24.2a5.72,5.72,0,0,1-1,2.18,2.28,2.28,0,0,1-1.7.53h-1v.38h8v-.38H205.6a4.7,4.7,0,0,1-2.07-.3,1.1,1.1,0,0,1-.53-1,5.16,5.16,0,0,1,.23-1.34c.15-.56.29-1,.42-1.45l1-3.09,0,0s1.55-1.8,5.08-1.24a8.62,8.62,0,0,0,5.43-1l1.8,5.64c.1.38.23.83.4,1.34a4.56,4.56,0,0,1,.25,1.22,1,1,0,0,1-.46.93,3.72,3.72,0,0,1-1.8.29h-1.07v.38h8.6v-.38h-.5a2.28,2.28,0,0,1-1.42-.34,3.38,3.38,0,0,1-.8-1.46l-3.05-9.14a64.11,64.11,0,0,1,5.25-6.8c.8,0,2.87-.44,3.23-4.16m-15.8,13.06a6.42,6.42,0,0,0-5,.94l3.6-11.56c.33-1.07.65-2.07.94-3s.56-1.81.82-2.68c.23.82.52,1.78.86,2.89s.74,2.36,1.2,3.76L215,26.71a8.27,8.27,0,0,1-5.23,1" transform="translate(0 0)"/><path id="Path_140" data-name="Path 140" class="cls-3" d="M96.48,37.15a8.87,8.87,0,0,1-3.93-.76,5.6,5.6,0,0,1-2.3-1.93A4.52,4.52,0,0,1,89.49,32,2.43,2.43,0,0,1,90,30.41a1.71,1.71,0,0,1,1.39-.59A8.71,8.71,0,0,0,92.65,35a4.65,4.65,0,0,0,4.06,1.78,4.79,4.79,0,0,0,3.78-1.48,6.31,6.31,0,0,0,1.35-4.4,6.18,6.18,0,0,0-.61-2.93,6,6,0,0,0-1.9-2.05,34.56,34.56,0,0,0-3.3-2,23.29,23.29,0,0,1-3-2,7.64,7.64,0,0,1-2.09-2.43A7.42,7.42,0,0,1,90.14,16,6.5,6.5,0,0,1,92,11.08a6.89,6.89,0,0,1,5-1.8,8.19,8.19,0,0,1,3.32.61,5.31,5.31,0,0,1,2.15,1.6,3.48,3.48,0,0,1,.76,2.12c0,1.27-.66,1.9-2,1.9a7.47,7.47,0,0,0-1.06-4.4,3.86,3.86,0,0,0-3.3-1.45,4.37,4.37,0,0,0-3.46,1.45,6.1,6.1,0,0,0-1.25,4.14,6.06,6.06,0,0,0,.61,2.9,5.83,5.83,0,0,0,1.78,2,25.68,25.68,0,0,0,3,1.8c1.14.63,2.2,1.29,3.18,2a8,8,0,0,1,2.33,2.43,6.89,6.89,0,0,1,.88,3.66,7.18,7.18,0,0,1-1.92,5.2,7.34,7.34,0,0,1-5.53,2" transform="translate(0 0)"/><path id="Path_141" data-name="Path 141" class="cls-3" d="M53.23,36.91v-.38h.92a2.44,2.44,0,0,0,2-.61,4.31,4.31,0,0,0,.5-2.49V13a3.85,3.85,0,0,0-.52-2.39A2.47,2.47,0,0,0,54.15,10h-.91V9.61h9q4.27,0,6.4,1.59a5.78,5.78,0,0,1,2.12,4.95,5.82,5.82,0,0,1-1.57,4.42,7.69,7.69,0,0,1-4.32,1.85v.08a7.91,7.91,0,0,1,5.22,2,6.86,6.86,0,0,1,1.7,5c0,2.53-.7,4.39-2.1,5.6s-3.54,1.82-6.42,1.82Zm5.85-14.53h3.06q3.44,0,4.74-1.53a6.93,6.93,0,0,0,1.3-4.58q0-3.33-1.38-4.8c-.91-1-2.47-1.48-4.66-1.47H59.08Zm0,14.15h4c2.24,0,3.82-.56,4.74-1.66s1.37-2.89,1.37-5.34a8.21,8.21,0,0,0-1.3-5.12c-.86-1.1-2.43-1.64-4.7-1.64H59.08Z" transform="translate(0 0)"/><path id="Path_142" data-name="Path 142" class="cls-3" d="M75.75,36.91v-.38h1a2.33,2.33,0,0,0,1.9-.61,4.21,4.21,0,0,0,.47-2.41V13a4.13,4.13,0,0,0-.47-2.39,2.36,2.36,0,0,0-1.9-.59h-1V9.61H85V10h-1a2.38,2.38,0,0,0-1.92.61,4.23,4.23,0,0,0-.5,2.44V33.51a4.13,4.13,0,0,0,.5,2.41,2.41,2.41,0,0,0,1.92.61h1v.38Z" transform="translate(0 0)"/><path id="Path_143" data-name="Path 143" class="cls-3" d="M118.3,37.3a9.19,9.19,0,0,1-5.71-1.74,10.51,10.51,0,0,1-3.42-4.9,21.62,21.62,0,0,1-1.15-7.4,21.07,21.07,0,0,1,1.18-7.43A10.43,10.43,0,0,1,112.72,11a9.57,9.57,0,0,1,5.81-1.72,8.65,8.65,0,0,1,5.24,1.32,3.77,3.77,0,0,1,1.76,3,2.09,2.09,0,0,1-.59,1.61,2.2,2.2,0,0,1-1.51.53,7.94,7.94,0,0,0-1.15-4.63c-.74-1-2-1.49-3.94-1.49a6.12,6.12,0,0,0-5.81,3.56q-1.83,3.55-1.83,10t1.87,10.17a6.32,6.32,0,0,0,6,3.55,5.64,5.64,0,0,0,3.92-1.28,6.81,6.81,0,0,0,2-3.65,1.09,1.09,0,0,1,.85,1.11,3.11,3.11,0,0,1-.8,1.83,6.22,6.22,0,0,1-2.37,1.69,9.83,9.83,0,0,1-3.9.69" transform="translate(0 0)"/><path id="Path_144" data-name="Path 144" class="cls-3" d="M152.14,36.91v-.38h1.22a2.48,2.48,0,0,0,1.93-.61,4,4,0,0,0,.51-2.45V13a3.85,3.85,0,0,0-.51-2.39,2.47,2.47,0,0,0-1.93-.59h-1.23V9.61h5.59l14,23.9V13.05a4.15,4.15,0,0,0-.5-2.44,2.36,2.36,0,0,0-1.91-.61H168V9.61h7.84V10h-1.27a2.42,2.42,0,0,0-1.95.61,4.23,4.23,0,0,0-.5,2.44V36.91h-1.07L156.19,11.72V33.47a4.1,4.1,0,0,0,.51,2.45,2.49,2.49,0,0,0,1.94.61H160v.38Z" transform="translate(0 0)"/><path id="Path_145" data-name="Path 145" class="cls-3" d="M175.43,36.91v-.38h1.22a2.49,2.49,0,0,0,1.94-.61,4.1,4.1,0,0,0,.51-2.45V13a3.91,3.91,0,0,0-.51-2.39,2.5,2.5,0,0,0-1.94-.59h-1.22V9.61H181l14,23.9V13.05a4.08,4.08,0,0,0-.5-2.44,2.34,2.34,0,0,0-1.91-.61h-1.34V9.61h7.84V10h-1.26a2.41,2.41,0,0,0-2,.61,4.15,4.15,0,0,0-.5,2.44V36.91h-1.07l-14.87-25.2V33.47a4.1,4.1,0,0,0,.51,2.45,2.48,2.48,0,0,0,1.93.61h1.34v.38Z" transform="translate(0 0)"/><path id="Path_146" data-name="Path 146" class="cls-3" d="M150,36.53a2.35,2.35,0,0,1-1.42-.34,3.38,3.38,0,0,1-.8-1.46L139.37,9.61H138l-7.65,24.2a5.8,5.8,0,0,1-1,2.18,2.31,2.31,0,0,1-1.7.54h-1v.38h8v-.38h-1.45a4.67,4.67,0,0,1-2.06-.31,1.1,1.1,0,0,1-.54-1,5.62,5.62,0,0,1,.23-1.34l.42-1.45,1-3.09,0,0s1.55-1.8,5.08-1.25a8.52,8.52,0,0,0,5.42-1l1.8,5.63c.11.39.24.83.4,1.34a4,4,0,0,1,.25,1.23,1,1,0,0,1-.46.93,3.8,3.8,0,0,1-1.8.29h-1.07v.38h8.6v-.38Zm-12.6-8.84a6.4,6.4,0,0,0-5,.94L136,17.07c.33-1.07.65-2.07.94-3s.56-1.81.82-2.68c.23.82.51,1.78.86,2.89s.74,2.36,1.2,3.76l2.77,8.65a8.29,8.29,0,0,1-5.23,1" transform="translate(0 0)"/><path id="Path_147" data-name="Path 147" class="cls-3" d="M15.42,43.84a1.35,1.35,0,1,0,1.34,1.34h0a1.34,1.34,0,0,0-1.34-1.34" transform="translate(0 0)"/><path id="Path_148" data-name="Path 148" class="cls-3" d="M15.54.08h0A.59.59,0,0,0,15.26,0h0A.43.43,0,0,0,15,.07h0c-.15.09-15,9-15,23.32C0,33.49,5.91,40.27,14.7,40.27l.4,0h0l.14,0h0l.14,0h0c8.44-.39,14.5-7.34,14.5-16.84C29.94,9.11,15.68.17,15.54.08M6.71,9,14,37,1.56,19.81l-.08-.08A24.69,24.69,0,0,1,6.71,9M28.59,20.43,16.52,37,23.69,9.28a24.6,24.6,0,0,1,4.9,11.15M22.82,8.17l-7,27.12V1.62a37.26,37.26,0,0,1,7,6.55M14.68,1.6V35.29L7.63,8a.24.24,0,0,0-.06-.11A38.5,38.5,0,0,1,14.68,1.6M1.12,23.4a18.52,18.52,0,0,1,.12-2.11L14.13,39.13c-9-.31-13-8.05-13-15.73M16.42,39,28.77,22.09c0,.43.05.87.05,1.3,0,8.62-5,14.81-12.4,15.65" transform="translate(0 0)"/></g></g></svg>